<svg width="12" height="9" viewBox="0 0 12 9" fill="none" xmlns="http://www.w3.org/2000/svg">
<circle cx="6" cy="2" r="1.75" stroke="#0C140D" stroke-width="0.5"/>
<path d="M9 4C9.55228 4 10 3.55228 10 3C10 2.44772 9.55228 2 9 2" stroke="#0C140D" stroke-width="0.5"/>
<path d="M9 9C9 6.79086 7.65685 5 6 5C4.34315 5 3 6.79086 3 9" stroke="#0C140D" stroke-width="0.5"/>
<path d="M11 8C11 6.34315 10.1046 5 9 5" stroke="#0C140D" stroke-width="0.5"/>
<path d="M3 4C2.44772 4 2 3.55228 2 3C2 2.44772 2.44772 2 3 2" stroke="#0C140D" stroke-width="0.5"/>
<path d="M1 8C1 6.34315 1.89543 5 3 5" stroke="#0C140D" stroke-width="0.5"/>
<path d="M3 4C2.44772 4 2 3.55228 2 3C2 2.44772 2.44772 2 3 2" stroke="#0C140D" stroke-width="0.5"/>
</svg>
